<?xml version="1.0" standalone="no"?>
<!DOCTYPE svg PUBLIC "-//W3C//DTD SVG 20010904//EN"
 "http://www.w3.org/TR/2001/REC-SVG-20010904/DTD/svg10.dtd">
<svg version="1.0" xmlns="http://www.w3.org/2000/svg"
 width="500.000000pt" height="500.000000pt" viewBox="0 0 500.000000 500.000000"
 preserveAspectRatio="xMidYMid meet">

<g transform="translate(0.000000,500.000000) scale(0.100000,-0.100000)"
fill="#000000" stroke="none">
<path d="M1528 3490 c-53 -16 -97 -51 -117 -94 -21 -43 -21 -49 -19 -903 l3
-859 25 -38 c15 -22 45 -47 75 -61 l51 -25 824 0 c473 0 839 4 857 9 51 15 86
40 113 79 l25 37 3 321 3 320 27 16 c28 17 28 17 57 -27 17 -25 34 -43 40 -42
13 4 114 269 107 281 -2 5 -55 5 -118 2 l-114 -7 0 423 c0 389 -2 426 -19 463
-22 50 -69 91 -119 105 -45 12 -1663 13 -1704 0z m1666 -134 c21 -16 44 -43
51 -60 9 -22 14 -155 18 -483 l6 -453 -52 -38 c-49 -36 -305 -218 -653 -465
-84 -59 -154 -107 -158 -107 -3 0 -6 116 -6 258 0 232 -2 259 -16 259 -22 0
-245 -122 -239 -130 3 -4 2 -5 -2 -2 -10 8 -410 -208 -425 -230 -4 -5 -8 -7
-8 -2 0 4 -25 -6 -55 -23 -30 -16 -79 -43 -107 -59 l-53 -28 3 716 c1 394 5
730 7 748 7 37 46 88 90 114 29 18 63 19 796 17 l766 -3 37 -29z m71 -1664
c-3 -17 -16 -41 -27 -52 -21 -19 -36 -20 -406 -20 l-383 0 85 57 c46 32 82 61
79 65 -2 5 0 7 5 6 8 -3 176 113 522 360 l125 89 3 -236 c2 -130 0 -251 -3
-269z m-995 148 l0 -220 -363 0 c-298 0 -367 3 -383 14 -23 17 -25 15 64 63
39 22 69 43 65 48 -5 4 -3 5 3 2 9 -5 301 144 314 161 3 4 10 8 15 9 6 1 69
33 140 72 72 39 133 70 138 71 4 0 7 -99 7 -220z"/>
<path d="M2790 2649 c0 -445 3 -559 13 -553 6 5 65 46 130 92 l117 84 0 469 0
469 -130 0 -130 0 0 -561z"/>
<path d="M2056 2620 c0 -242 3 -442 7 -446 3 -3 58 23 121 58 64 36 113 68
109 72 -4 4 0 4 10 0 16 -6 17 17 17 375 l-1 381 -132 0 -132 0 1 -440z"/>
<path d="M1700 2394 l0 -426 107 58 c59 31 120 64 135 73 l27 16 1 352 0 353
-135 0 -135 0 0 -426z"/>
<path d="M2410 2484 c0 -150 1 -157 23 -174 21 -18 22 -24 25 -234 2 -119 6
-216 8 -216 3 0 50 32 105 71 l99 71 0 319 0 319 -130 0 -130 0 0 -156z"/>
</g>
</svg>
