<?xml version="1.0" standalone="no"?>
<!DOCTYPE svg PUBLIC "-//W3C//DTD SVG 20010904//EN"
 "http://www.w3.org/TR/2001/REC-SVG-20010904/DTD/svg10.dtd">
<svg version="1.0" xmlns="http://www.w3.org/2000/svg"
 width="500.000000pt" height="500.000000pt" viewBox="0 0 500.000000 500.000000"
 preserveAspectRatio="xMidYMid meet">

<g transform="translate(0.000000,500.000000) scale(0.100000,-0.100000)"
fill="#000000" stroke="none">
<path d="M2857 3263 c-10 -9 -9 -393 0 -393 4 0 63 12 130 27 l123 26 0 174 0
173 -123 0 c-68 0 -127 -3 -130 -7z"/>
<path d="M2520 2739 l0 -351 33 27 c17 15 74 65 125 112 l92 85 0 239 0 239
-125 0 -125 0 0 -351z"/>
<path d="M2990 2868 c-47 -11 -87 -22 -89 -24 -2 -2 8 -13 22 -25 15 -11 27
-24 27 -29 0 -17 -132 -170 -226 -260 -168 -163 -334 -286 -492 -365 -112 -56
-172 -75 -252 -82 -85 -7 -141 9 -192 55 -28 25 -38 30 -30 16 21 -40 101
-101 147 -113 226 -57 591 143 1041 572 l101 96 31 -31 31 -31 3 121 c4 142
15 132 -122 100z"/>
<path d="M2180 2504 l0 -335 60 33 c33 18 90 53 127 78 l68 45 3 258 2 257
-130 0 -130 0 0 -336z"/>
<path d="M2850 2776 c0 -74 8 -77 42 -18 17 29 17 29 -12 57 l-30 29 0 -68z"/>
<path d="M3020 2645 c-12 -15 -11 -16 16 -13 16 1 28 8 27 13 -3 17 -29 17
-43 0z"/>
<path d="M3167 2626 l-107 -21 35 -36 36 -36 -77 -82 c-253 -269 -673 -471
-979 -471 -140 0 -271 55 -332 139 -42 56 -48 60 -22 12 34 -63 116 -144 177
-175 136 -69 299 -69 532 1 214 64 501 224 721 402 l87 69 33 -34 c42 -44 44
-40 54 129 l7 127 -28 -1 c-16 -1 -77 -11 -137 -23z"/>
<path d="M2922 2547 l-72 -72 0 -84 0 -83 48 37 c64 52 128 113 162 156 l29
35 -48 41 -48 42 -71 -72z"/>
<path d="M2705 2359 c-33 -28 -88 -71 -122 -97 -62 -45 -63 -47 -63 -94 0 -26
2 -48 5 -48 10 0 108 51 178 92 l67 40 0 79 c0 44 -1 79 -2 78 -2 0 -30 -23
-63 -50z"/>
<path d="M2978 2193 l-128 -85 0 -184 0 -184 130 0 130 0 0 270 c0 149 -1 270
-2 270 -2 -1 -60 -40 -130 -87z"/>
<path d="M2355 2115 c-44 -25 -101 -52 -127 -62 -52 -19 -68 -48 -20 -37 75
17 112 27 170 45 l62 21 0 39 c0 21 -1 39 -2 38 -2 0 -39 -20 -83 -44z"/>
<path d="M2675 2019 c-44 -21 -97 -44 -117 -50 l-38 -12 0 -109 0 -108 125 0
125 0 0 160 c0 88 -3 160 -7 159 -5 0 -44 -18 -88 -40z"/>
<path d="M2335 1900 c-38 -10 -89 -19 -112 -19 l-43 -1 0 -70 0 -70 130 0 130
0 0 90 c0 103 7 99 -105 70z"/>
</g>
</svg>
